# xmcd
#
# Track frame offsets: 
#        150
#        18952
#        34350
#        53903
#        73009
#        95077
#        108411
#        120081
#        141325
#        161829
#        188762
#        206523
#        224105
#
# Disc length: 3310 seconds
#
# Revision: 0
# Processed by: cddbd v1.5.2PL0 Copyright (c) Steve Scherf et al.
# Submitted via: ExactAudioCopy v1.2
#
DISCID=c30cec0d
DTITLE=Lurrie Bell - Can’t Shake This Feeling
DYEAR=2016
DGENRE=Blues
TTITLE0=Blues Is Trying To Keep Up With Me
TTITLE1=Drifting
TTITLE2=I Get So Weary
TTITLE3=One Eyed Woman
TTITLE4=This Worrisome Feeling In My Heart
TTITLE5=Sit Down Baby
TTITLE6=Hold Me Tight
TTITLE7=Sinner’s Prayer
TTITLE8=I Can’t Shake This Feeling
TTITLE9=Born With The Blues
TTITLE10=Do You Hear
TTITLE11=Hidden Charms
TTITLE12=Faith And Music
EXTD=
EXTT0=
EXTT1=
EXTT2=
EXTT3=
EXTT4=
EXTT5=
EXTT6=
EXTT7=
EXTT8=
EXTT9=
EXTT10=
EXTT11=
EXTT12=
PLAYORDER=
